<svg x="0px" y="0px" viewBox="0 0 203.2 145.9" style="enable-background:new 0 0 203.2 145.9;">
	<linearGradient id="SVGID_1_" gradientUnits="userSpaceOnUse" x1="99.617" y1="671.0746" x2="177.5148" y2="778.2767" gradientTransform="matrix(1 0 0 -1 0 798)">
		<stop  offset="0" style="stop-color:#001287"/>
		<stop  offset="1" style="stop-color:#4ADEDE"/>
	</linearGradient>
	<path style="fill:url(#SVGID_1_);stroke:#FFFFFF;stroke-width:3;stroke-linejoin:round;stroke-miterlimit:10;" d="M170.8,79.7
	l29.5-58.1c4.6-9.2-2-20-12.3-20h-47.6c-0.4,0-0.7,0.2-0.9,0.5l-60.4,121c-4.9,9.8,2.3,21.4,13.2,21.4l45.1-0.1
	c0.4,0,0.7-0.2,0.9-0.5L170.8,79.7z"/>
	<g>
		<path style="fill:#797EF6;" d="M84.6,142.8c-8.2,0-15.5-4.6-19.2-11.9L1.7,5.2C1.3,4.5,1.6,3.9,1.7,3.7S2.3,3,3,3h46.1
		c11.5,0,21.9,6.4,27,16.7l60.4,121.1c0.3,0.7,0.1,1.3-0.1,1.5s-0.5,0.7-1.3,0.7L84.6,142.8z"/>
		<path style="fill:#FFFFFF;" d="M49.1,4.5c11,0,20.8,6.1,25.7,15.9l60.4,121.1l-50.6-0.2c-7.6,0-14.5-4.2-17.9-11L3,4.5H49.1
		M49.1,1.5H3c-2.3,0-3.7,2.4-2.7,4.4l63.7,125.8c3.9,7.8,11.9,12.6,20.6,12.7l50.6,0.2h0c2.2,0,3.7-2.4,2.7-4.4L77.5,19
		C72.1,8.3,61.1,1.5,49.1,1.5L49.1,1.5z"/>
	</g>
</svg>
