<?xml version="1.0" encoding="utf-8"?>
<!-- Generator: Adobe Illustrator 26.4.1, SVG Export Plug-In . SVG Version: 6.00 Build 0)  -->
<svg version="1.1" id="Layer_1" xmlns="http://www.w3.org/2000/svg" xmlns:xlink="http://www.w3.org/1999/xlink" x="0px" y="0px"
	 viewBox="0 0 714.5 212" style="enable-background:new 0 0 714.5 212;" xml:space="preserve">
<g id="svgGroup">
	
		<path id="_x30_" vector-effect="non-scaling-stroke" style="fill-rule:evenodd;clip-rule:evenodd;stroke:#000000;stroke-width:0.7087;stroke-linecap:round;" d="
		M118.2,61.6L70,142.8c-1,1.7-2,3.4-3.1,5c-2.2,3.2-4.2,5.7-6.1,7.5c-0.2,0.2-0.5,0.4-0.7,0.6c-1.6,1.4-3.5,2.5-5.5,3.2
		c-1.6,0.5-3.3,0.8-4.9,0.8c-4.1,0-7.4-1.4-9.9-4.1c-1-1.1-1.8-2.3-2.4-3.6c-1.3-2.5-2.2-5.7-2.9-9.5L17.6,50.4
		c-0.4-2.4-1.1-4.3-2.2-5.8c-0.5-0.7-1-1.3-1.5-1.9c-0.6-0.7-1.2-1.3-1.9-2c-0.3-0.3-0.5-0.6-0.8-0.8c-0.3-0.3-0.7-0.6-1-1
		c-0.6-0.6-1.1-1.1-1.5-1.6c-0.1-0.1-0.2-0.3-0.3-0.4c-0.4-0.5-0.6-1.1-0.7-1.7c-0.1-0.3-0.1-0.6-0.1-1C7,30,9.1,27.6,13.7,27
		c0.9-0.1,1.8-0.2,2.7-0.2h50c0.9,0,1.8,0.1,2.6,0.2c0.9,0.1,1.7,0.3,2.4,0.6c0.7,0.3,1.3,0.6,1.9,1.1c0.7,0.6,1.3,1.3,1.7,2.1
		c0.4,0.9,0.6,1.9,0.5,3c0,0.4,0,0.9-0.1,1.3c-0.1,0.5-0.2,0.9-0.4,1.4c-0.1,0.1-0.1,0.2-0.2,0.3c-0.4,0.7-1.1,1.6-2,2.7
		c-0.1,0.1-0.2,0.2-0.3,0.3c-0.5,0.5-1,1.1-1.4,1.7c-0.5,0.7-1,1.4-1.4,2.1c-0.4,0.7-0.6,1.4-0.8,2.1c-0.1,0.6-0.2,1.3-0.2,2
		c0,0.1,0,0.2,0,0.3c0,0.8,0.1,1.5,0.2,2l7.6,46.6l26.6-47.2c1.3-2.4,2.7-4.8,4.2-7.1c3.2-4.9,6.4-8.5,9.6-11
		c3.4-2.6,7.4-4.3,11.7-4.9c1.7-0.3,3.4-0.4,5.1-0.4c2.1,0,4.3,0.2,6.3,0.7c3.1,0.8,6,2.3,8.4,4.6c2.5,2.4,4.2,5.5,4.9,9
		c0.4,1.9,0.6,3.8,0.6,5.7c0,2.1-0.2,4.1-0.6,6.1c-0.5,2.2-1.3,4.3-2.5,6.3c-1.1,1.9-2.5,3.7-4.2,5.2c-1.1,1-2.4,2-3.7,2.7
		c-3.2,1.8-6.4,2.7-9.6,2.7c-1.9,0-3.8-0.2-5.6-0.8c-1.1-0.3-2.1-0.7-3.1-1.2C122.1,65.7,119.9,63.9,118.2,61.6z"/>
	
		<path id="_x31_" vector-effect="non-scaling-stroke" style="fill-rule:evenodd;clip-rule:evenodd;stroke:#000000;stroke-width:0.7087;stroke-linecap:round;" d="
		M210.4,79.4L192,139.2c-0.3,1.3-0.5,2.4-0.6,3.4c0,0.3,0,0.5,0,0.8c0,0.5,0,1.1,0.1,1.6c0.1,1,0.4,1.8,0.9,2.5c0.7,1,1.6,2,2.8,2.9
		c0.8,0.8,1.4,1.5,1.8,2c0.1,0.1,0.1,0.2,0.2,0.3c0.2,0.3,0.3,0.7,0.4,1c0,0.4,0,0.8-0.1,1.2c0,0,0,0,0,0c-0.5,1.4-1.5,2.5-2.8,3.2
		c-0.4,0.2-0.8,0.4-1.2,0.6c-0.7,0.3-1.4,0.5-2.1,0.6c-1.9,0.4-4.2,0.6-7.1,0.6h-45.6c-0.9,0-1.8,0-2.7-0.1
		c-1.8-0.2-3.3-0.6-4.4-1.2c-0.2-0.1-0.4-0.2-0.5-0.3c-0.4-0.3-0.7-0.6-1-0.9c-0.8-1-1-2.2-0.6-3.6c0.4-1.2,1.3-2.3,2.7-3.3
		c0.5-0.3,1-0.6,1.5-0.9c1.1-0.6,2.1-1.2,3.1-2c0.7-0.6,1.3-1.2,1.9-1.8c1.3-1.4,2.4-3.6,3.3-6.6c0-0.1,0.1-0.3,0.1-0.4L159.4,81
		c0.3-0.8,0.4-1.5,0.5-2.1c0-0.3,0.1-0.6,0.1-0.9c0-0.5,0-0.9-0.1-1.4c-0.2-0.8-0.4-1.5-0.9-2.1c-0.3-0.4-0.6-0.7-0.9-1
		c-0.3-0.3-0.7-0.6-1.1-1c-0.3-0.3-0.7-0.5-1-0.8c-1.2-1-2.1-1.8-2.7-2.6c-0.1-0.1-0.1-0.1-0.1-0.2c-0.5-0.8-0.6-1.8-0.2-3
		c0-0.1,0-0.1,0-0.2c0.3-1,0.9-2,1.7-2.7c1.9-1.9,5.3-3.6,10.1-5.2c0.3-0.1,0.5-0.2,0.8-0.2c7.6-2.3,15.5-3.5,23.8-3.5
		c2,0,4,0.1,6,0.3c4.4,0.5,7.8,1.7,10.4,3.6c0.2,0.1,0.4,0.3,0.6,0.5c3.2,2.6,5.1,6.4,5.3,10.5c0,0.5,0.1,1,0.1,1.5
		C211.8,73.7,211.3,76.6,210.4,79.4z M209.5,11.1c-2.2-0.8-4.4-1.1-6.7-1.1c-4.1,0-7.8,1.1-11,3.2c-3.2,2.1-5.7,4.8-7.4,8.1
		s-2.6,6.6-2.6,9.9c0,0.1,0,0.2,0,0.2c0.1,4.7,2,9.2,5.3,12.5c1.7,1.7,3.7,3,5.9,3.9c2.2,0.8,4.5,1.2,6.8,1.2c4,0,7.6-1,10.9-3.1
		c3.3-2.1,5.8-4.8,7.6-8.1c0.3-0.5,0.5-1,0.8-1.6c1.3-2.7,1.9-5.7,1.9-8.6c0-0.1,0-0.2,0-0.3c0-4.6-1.9-9-5.2-12.2
		C214,13.3,211.9,12,209.5,11.1z"/>
	
		<path id="_x32_" vector-effect="non-scaling-stroke" style="fill-rule:evenodd;clip-rule:evenodd;stroke:#000000;stroke-width:0.7087;stroke-linecap:round;" d="
		M280.8,89.2l-15.4,50c-0.1,0.2-0.2,0.5-0.2,0.7c-0.1,0.6-0.2,1.4-0.2,2.3c0,0.7,0.1,1.4,0.3,2c0.2,0.8,0.7,1.6,1.2,2.3
		c0.5,0.5,1,1,1.5,1.5c0.5,0.5,1.2,0.9,1.8,1.4c0.2,0.2,0.5,0.3,0.8,0.5c1.2,0.8,2.1,1.5,2.7,2.1c0.2,0.2,0.3,0.3,0.5,0.5
		c0.5,0.7,0.7,1.5,0.6,2.6c-0.2,1.4-1,2.6-2.2,3.4c-0.2,0.2-0.5,0.3-0.7,0.4c-0.5,0.2-1.1,0.4-1.7,0.6c-1.2,0.3-2.7,0.5-4.6,0.6
		c-0.7,0-1.5,0-2.2,0h-51.2c-0.9,0-1.7,0-2.6-0.1c-1.7-0.2-3.1-0.5-4.2-1.1c-0.3-0.1-0.5-0.3-0.7-0.5c-0.4-0.3-0.8-0.7-1.1-1.1
		c-0.7-1-0.9-2.1-0.6-3.4c0.4-1.2,1.3-2.3,2.7-3.3c0.5-0.3,1-0.6,1.5-0.9c1.1-0.6,2.1-1.2,3.1-2c0.7-0.6,1.3-1.2,1.9-1.8
		c1.3-1.4,2.4-3.6,3.3-6.6c0-0.1,0.1-0.3,0.1-0.4L233,81c0.1-0.3,0.2-0.5,0.2-0.8c0.1-0.6,0.2-1.2,0.2-2c0-1.5-0.3-2.6-0.9-3.4
		c-0.5-0.7-1.4-1.6-2.5-2.7c-0.1-0.1-0.3-0.2-0.4-0.3c-1.2-1-2.1-1.8-2.7-2.6c-0.1-0.1-0.1-0.1-0.1-0.2c-0.5-0.8-0.6-1.8-0.2-3
		c0-0.1,0-0.1,0-0.2c0.3-1,0.9-2,1.7-2.7c1.9-1.9,5.3-3.6,10.1-5.2c0.3-0.1,0.5-0.2,0.8-0.2c7.6-2.3,15.5-3.5,23.8-3.5
		c5.5,0,10,1.2,13.6,3.7c3.4,2.3,5.8,5.8,6.8,9.8c0.1,0.2,0.1,0.4,0.2,0.7c2.1-3.1,4.6-5.9,7.5-8.2c5-4,11.3-6.1,17.7-6
		c2.6,0,5.2,0.3,7.8,1c3.8,1,7.3,3,10.1,5.8c4.5,4.5,6.7,10.1,6.7,16.8c0,1.4-0.1,2.7-0.3,4.1c-0.1,1-0.3,2-0.5,2.9
		c-0.5,2.1-1.3,4.2-2.3,6.1c-1.3,2.5-3.1,4.7-5.3,6.5c-3.3,2.6-7.3,4.1-11.5,4.3c-0.6,0-1.3,0.1-1.9,0.1c-1.5,0-2.9-0.1-4.4-0.3
		c-1.6-0.3-3-0.7-4.2-1.3c-1.1-0.5-2.1-1.2-2.9-2c-2.4-2.2-4.6-5.2-6.5-8.9c-0.1-0.2-0.3-0.5-0.4-0.7c-1.1-2.3-2.1-3.9-3-5
		c-0.3-0.4-0.7-0.7-1.1-0.9c-0.6-0.4-1.4-0.7-2.1-0.7c-1.3,0-2.5,0.5-3.5,1.6c-0.8,0.9-1.6,2.4-2.3,4.4
		C281,88.4,280.9,88.8,280.8,89.2z"/>
	
		<path id="_x33_" vector-effect="non-scaling-stroke" style="fill-rule:evenodd;clip-rule:evenodd;stroke:#000000;stroke-width:0.7087;stroke-linecap:round;" d="
		M377.8,142.6h30c3,0,6,0.2,9,0.5c3,0.4,5.8,1,8.3,1.8c2.4,0.7,4.6,1.7,6.7,3c2,1.2,3.8,2.7,5.2,4.6c2.1,2.7,3.2,5.9,3.4,9.7
		c0,0.3,0,0.6,0,0.9c0,2.4-0.4,4.9-1.2,7.4c-0.9,2.8-2.3,5.4-4.1,7.7c-1.3,1.8-3,3.5-4.9,5.2c-0.6,0.6-1.3,1.1-2,1.7
		c-4.3,3.4-9.8,6.2-16.7,8.7c-2.4,0.8-4.8,1.6-7.2,2.2c-4.5,1.2-9,2.1-13.6,2.7c-7.2,1-15.1,1.5-23.8,1.5c-10,0-18.8-0.7-26.5-2
		c-2.3-0.4-4.5-0.9-6.7-1.4c-9.1-2.3-15.8-5.4-20.3-9.3c-1.4-1.2-2.7-2.6-3.7-4.1c-1.9-2.6-2.9-5.8-3-9c0-0.8,0.2-2,0.5-3.4
		c0.1-0.5,0.2-0.9,0.3-1.4c0.9-2.7,2.4-5.1,4.6-7c1.1-1,2.3-1.8,3.5-2.5c1.4-0.8,2.9-1.5,4.5-2c3.1-1.1,7-1.9,11.7-2.5
		c1.5-0.2,3-0.3,4.5-0.5c-1.5-1.4-2.7-3.1-3.6-5c-0.8-1.9-1.2-3.9-1.2-6c0-1,0.1-2.1,0.3-3.1c0.1-0.5,0.2-1,0.3-1.5
		c1.7-5.5,6-9.9,12.9-13.1c1.9-0.9,3.9-1.6,5.9-2.3c-3.1-1.6-5.8-3.7-8.2-6.2c-4.5-4.8-6.8-10.7-6.8-17.8c0-2.1,0.2-4.2,0.6-6.2
		c0.2-1,0.4-2,0.6-3c1.4-5.7,4-11.1,7.7-15.6c0.9-1.1,1.9-2.2,2.9-3.3c3.7-3.8,8-7.1,12.7-9.6c2.7-1.5,5.4-2.8,8.3-3.9
		c6.8-2.6,14-4.2,21.3-4.8c2.2-0.2,4.4-0.2,6.7-0.2c4.6,0,9.3,0.2,13.9,0.6c4.6,0.4,8.8,1.1,12.6,2c3.8,0.8,7.4,2.1,10.9,3.6
		c-2-3.1-3.6-6.4-4.7-9.9s-1.7-6.8-1.7-9.7c0-5.1,1.6-9.4,4.9-13c1.9-2,4.2-3.5,6.9-4.3c2.3-0.7,5-1.1,8-1.1c4.3,0,8.4,0.9,12.5,2.7
		c2.4,1.1,4.7,2.5,6.8,4.2c1.2,1,2.3,2.1,3.2,3.2c1.1,1.3,2,2.8,2.7,4.3c0.8,1.8,1.2,3.8,1.2,5.8c0,7.9-5.3,11.8-16,11.8
		c-2.8,0-5-0.2-6.6-0.6c-0.2,0-0.3-0.1-0.5-0.1c-0.7-0.2-1.3-0.4-2-0.7c-1.2-0.4-2.5-1-3.9-1.6c-0.1,0.3-0.3,0.7-0.3,1
		c-0.2,0.8-0.3,1.8-0.3,3c0,0.9,0.1,1.7,0.2,2.6c0.2,1.5,0.5,3.2,0.9,5c0.5,2.1,1.1,4.1,1.9,6.1c0.3,0.7,0.5,1.4,0.8,2.1
		c2.1,3.1,3.4,6.7,3.9,10.4c0.2,1.5,0.3,2.9,0.3,4.4c0,1.9-0.2,4.1-0.6,6.6c-0.1,0.9-0.3,1.8-0.4,2.6c-1.4,5.7-4,11.1-7.7,15.7
		c-0.9,1.1-1.8,2.2-2.8,3.3c-3.8,4-8.3,7.4-13.1,10c-2.5,1.3-5,2.5-7.7,3.5c-6.5,2.5-13.4,4-20.3,4.6c-2.5,0.2-5,0.3-7.6,0.3
		c-4.9,0-9.8-0.2-14.6-0.7c-2.4-0.2-4.8-0.5-7.2-0.9c-0.9,0.7-1.6,1.6-2.1,2.6c-0.6,1.2-0.9,2.5-0.9,3.8c0,1.7,0.8,3.2,2.4,4.3
		c0.6,0.4,1.2,0.7,1.9,0.9C373.2,142.3,375.3,142.6,377.8,142.6z M407.3,79.2c0.1-0.7,0.1-1.5,0.1-2.2c0-0.9-0.1-1.7-0.3-2.6
		c-0.6-2.8-2.5-4.2-5.5-4.2c-3.3,0-6.2,1.6-8.7,4.9c-0.8,1-1.5,2.2-2.1,3.3c-1.3,2.5-2.6,5.6-3.9,9.5c-0.5,1.6-1,3.1-1.5,4.7
		c-1.7,5.6-2.7,10.1-3.1,13.5c-0.1,0.8-0.1,1.5-0.1,2.3c0,3.9,1.4,6,4.3,6.5c0.4,0.1,0.9,0.1,1.3,0.1c2.3,0,4.4-0.8,6.2-2.3
		c0.9-0.7,1.7-1.6,2.5-2.6c0,0,0.1-0.1,0.1-0.1c2.1-2.7,4.1-7.1,6.2-13.1c0.5-1.4,0.9-2.8,1.4-4.3C405.9,87.1,406.9,82.6,407.3,79.2
		z M383.6,162.8h-19.2c-3.7,0-7.1-0.2-10.2-0.6c-1.5,1.8-2.3,4.2-2.4,7.2c0,0.3,0,0.6,0,0.8c0,1,0.2,2,0.5,3
		c0.6,1.8,1.9,3.3,3.6,4.2c2.3,1.3,5.8,2,10.5,2.2c0.5,0,1.1,0,1.6,0c4.8,0,9-0.5,12.5-1.6c1.3-0.4,2.6-0.9,3.8-1.4
		c1.1-0.5,2.1-1.1,3-1.8c2.1-1.6,3.4-4.1,3.3-6.8c0-0.6-0.1-1.2-0.3-1.8c-0.3-0.8-0.8-1.5-1.5-2c-0.6-0.4-1.2-0.7-1.8-0.9
		C386,163,384.9,162.8,383.6,162.8z"/>
	
		<path id="_x34_" vector-effect="non-scaling-stroke" style="fill-rule:evenodd;clip-rule:evenodd;stroke:#000000;stroke-width:0.7087;stroke-linecap:round;" d="
		M545,55.1c-4.7-0.6-9.4-0.9-14.2-0.9c-11.7,0-22.8,2.2-33.1,6.7c-10.3,4.5-19.1,10.7-26.2,18.8c-7.1,8.1-12,17.3-14.5,27.7
		c0,0.2-0.1,0.3-0.1,0.5c-0.5,2.4-0.9,4.6-1.1,6.8c-0.3,2.2-0.4,4.3-0.4,6.5c0,1.1,0,2.3,0.1,3.4c0.5,10.2,5.3,19.7,13.2,26.1
		c6.4,5.3,15.2,8.7,26.6,10.2c4.8,0.6,9.6,0.9,14.5,0.9c0.7,0,1.5,0,2.2,0c10.5-0.2,20.9-2.4,30.5-6.7c10.1-4.5,18.6-10.8,25.5-19
		s11.7-17.8,14.2-28.7c0.1-0.3,0.1-0.6,0.2-0.9c0.9-4.6,1.4-8.7,1.4-12.5c0-0.9,0-1.8-0.1-2.8c-0.4-10.1-5-19.6-12.8-26
		c-0.1-0.1-0.2-0.2-0.3-0.3C564.4,59.8,555.9,56.5,545,55.1z M530.2,72c-1.1,0-2.1,0.3-3,0.9c-1.9,1.1-3.9,3.3-5.9,6.6
		c-3.1,5-6.8,14.4-11.1,28.3c-4,13.1-6.2,22.5-6.4,28.2c0,0.3,0,0.6,0,1c0,0.6,0,1.3,0.1,1.9c0.2,1.9,0.6,3.2,1.3,4
		c0.7,0.8,1.7,1.3,2.7,1.4c0.4,0.1,0.7,0.1,1.1,0.1c2.8,0.3,5.7-2.1,8.7-7.2c0.9-1.5,1.7-3,2.4-4.6c2.5-5.6,5.5-13.9,8.9-25
		c3.1-9.6,5-17.3,5.8-23c0.3-1.7,0.4-3.5,0.4-5.2c0-2.8-0.4-4.7-1.3-5.8c-0.7-0.8-1.6-1.4-2.7-1.5C530.9,72,530.5,72,530.2,72z"/>
	
		<path id="_x35_" vector-effect="non-scaling-stroke" style="fill-rule:evenodd;clip-rule:evenodd;stroke:#000000;stroke-width:0.7087;stroke-linecap:round;" d="
		M663.1,52.9c-4.2-0.3-8.5-0.5-12.7-0.5c-4,0-8.1,0.2-12.1,0.6c-4.9,0.5-9.3,1.4-13.4,2.7c-4.8,1.4-9.3,3.6-13.5,6.4
		c-0.5,0.3-1,0.7-1.4,1c-4.1,3.2-7.1,6.8-9.2,10.9c-2.1,4.4-3.2,9.2-3.1,14.1c0,5.1,1.4,9.5,4.1,13.2s6,6.8,9.9,9.3
		c1,0.6,2,1.2,3,1.8c1.7,1,3.5,2,5.5,3c2.1,1.1,4.2,2.1,6.3,3.1c4.6,2.2,8.3,4.2,11.1,5.9c1,0.6,2,1.3,2.9,2c0.7,0.5,1.4,1.1,2,1.8
		c1.6,1.7,2.5,3.8,2.6,6.1c0,0.6,0,1.1-0.1,1.7c-0.2,2.4-1.4,4.6-3.3,6.1c-2.3,1.9-5.1,2.8-8.6,2.8c-1.1,0-2.2-0.1-3.4-0.2
		c-2-0.2-3.9-0.5-5.8-1c0.4-1.9,0.6-3.7,0.6-5.4c0-0.4,0-0.9,0-1.3c-0.2-5.6-2.8-10.9-7.1-14.5c-2.2-1.9-4.6-3.4-7.3-4.5
		c-3.1-1.2-6.4-1.8-9.8-1.7c-2.3,0-4.5,0.2-6.4,0.7c-2.7,0.6-5.2,1.9-7.4,3.7c-2.3,2-3.9,4.6-4.6,7.8c-0.4,1.7-0.6,3.4-0.6,5.2
		c0,3.5,1,7,3,9.9c1.4,2.2,3.4,4.1,5.9,5.9c2.2,1.5,4.5,2.9,6.9,3.9c7,3.2,15.7,5.4,26.1,6.4c5.4,0.5,10.9,0.8,16.4,0.8
		c3.3,0,6.6-0.1,9.9-0.4c5.3-0.4,10.1-1.2,14.6-2.2c4.9-1.1,9.5-2.9,14-5.2c9.7-5.2,15.7-12.3,17.8-21.2c0.1-0.5,0.2-1,0.3-1.5
		c0.4-2.1,0.5-3.6,0.5-4.5c0-0.2,0-0.3,0-0.5c0-4.6-1.6-9.1-4.5-12.7c-3-3.7-6.7-6.8-11-9.3c-1.2-0.7-2.3-1.3-3.5-1.9
		c-1.8-1-3.8-2-6-3c-2.3-1.1-4.7-2.2-7-3.2c-5.6-2.6-10-4.9-13.4-6.8c-1.2-0.7-2.3-1.4-3.4-2.2c-0.9-0.6-1.7-1.3-2.4-2
		c-1.8-1.8-2.8-4.2-2.8-6.8c0-0.6,0-1.1,0.1-1.6c0.2-2.1,1.3-4,3-5.2c1.4-1,2.9-1.7,4.6-2c1.2-0.3,2.5-0.4,3.7-0.4
		c1.1,0,2.3,0.1,3.6,0.4c0.9,0.2,1.9,0.4,2.8,0.6c-0.5,1.6-0.8,3.3-0.8,5c0,3.2,1,6.2,2.9,8.8c1.1,1.5,2.5,2.8,4,3.8
		c2.6,1.9,5.6,3.3,8.7,4c2.7,0.7,5.4,1,8.2,1c1,0,2,0,3.1-0.1c2.1-0.2,4.1-0.5,5.9-1.1c2.3-0.7,4.5-1.8,6.3-3.2c0,0,0.1,0,0.1-0.1
		c1.8-1.4,3.1-3.1,4-4.9c1-2,1.4-4.2,1.4-6.4c0-3.1-1-6.1-2.9-8.5c-1-1.4-2.2-2.6-3.6-3.7c-2.8-2.4-6.5-4.4-11-6.1
		c-2.5-0.9-5.1-1.7-7.6-2.3c-1.3-0.3-2.6-0.6-3.9-0.9C671.4,53.8,667.4,53.3,663.1,52.9z"/>
</g>
</svg>
