<?xml version="1.0" encoding="utf-8"?>
<!-- Generator: Adobe Illustrator 26.4.1, SVG Export Plug-In . SVG Version: 6.00 Build 0)  -->
<svg version="1.1" id="Layer_1" xmlns="http://www.w3.org/2000/svg" xmlns:xlink="http://www.w3.org/1999/xlink" x="0px" y="0px"
	 viewBox="0 0 1045.4 284.9" style="enable-background:new 0 0 1045.4 284.9;" xml:space="preserve">
<style type="text/css">
	.st0{fill-rule:evenodd;clip-rule:evenodd;fill:#FFFFFF;}
</style>
<g id="svgGroup">
	<path id="_x30_" vector-effect="non-scaling-stroke" class="st0" d="M166,77.4L93.7,199.2c-1.5,2.6-3.1,5.1-4.7,7.5
		c-3.6,5.4-7.1,9.5-10.3,12.3c-2.4,2.1-5.2,3.8-8.2,4.8c-2.4,0.8-4.9,1.2-7.4,1.2c-2.3,0-4.5-0.3-6.7-0.9c-3.1-1-6-2.8-8.2-5.2
		c-1.4-1.6-2.6-3.4-3.6-5.4c-1.8-3.5-3.2-7.9-4.2-13.2c-0.1-0.4-0.1-0.7-0.2-1.1L15.1,60.6c-0.2-1.3-0.5-2.5-0.9-3.8
		s-0.9-2.5-1.5-3.6c-0.3-0.5-0.6-0.9-0.9-1.4c-0.7-1-1.5-2-2.3-2.9c-1.2-1.4-2.5-2.8-4-4.3c-0.5-0.5-1-0.9-1.5-1.4
		c-1.2-1.2-2.1-2.1-2.7-2.9c-0.6-0.8-0.9-1.7-1.1-2.6c-0.1-0.5-0.1-0.9-0.1-1.4C0,35.9,0,35.5,0,35.1c-0.4-6.6,4.1-9.9,13.3-9.9h75
		c4.6,0,8.1,1,10.5,2.9c1.1,0.8,2,1.9,2.6,3.2c0.5,1.1,0.8,2.3,0.8,3.7c0,0.2,0,0.5,0,0.7c0,0.7,0,1.3-0.2,2c-0.1,0.7-0.3,1.4-0.6,2
		c-0.1,0.2-0.2,0.3-0.3,0.5c-0.7,1.2-1.8,2.7-3.5,4.5c-1.8,2-3.2,3.9-4.2,5.7s-1.5,4-1.5,6.6c0,1.2,0.1,2.2,0.3,3l11.4,69.9
		l39.9-70.8c7-12.8,13.9-21.9,20.7-27.2c5.1-3.9,11.1-6.5,17.5-7.4c2.5-0.4,5.1-0.6,7.7-0.6c3.2,0,6.4,0.3,9.5,1.1
		c4.7,1.1,9,3.5,12.5,6.8c3.7,3.6,6.3,8.3,7.4,13.4c0.6,2.8,0.9,5.7,0.9,8.6c0,7.2-1.6,13.4-4.6,18.6c-1.7,2.9-3.8,5.5-6.2,7.8
		c-1.7,1.6-3.6,2.9-5.6,4.1c-4.8,2.7-9.6,4-14.4,4c-2.9,0-5.7-0.4-8.4-1.2c-1.6-0.5-3.1-1.1-4.6-1.8C171.9,83.5,168.6,80.8,166,77.4
		z"/>
	<path id="_x31_" vector-effect="non-scaling-stroke" class="st0" d="M304.8,104.1l-27.6,89.7c-0.2,0.9-0.4,1.7-0.5,2.6
		c-0.2,0.9-0.3,1.7-0.3,2.5c0,0.4,0,0.8,0,1.2c0,2.6,0.5,4.6,1.5,6.1c0.9,1.4,2.2,2.8,3.9,4.1c0.1,0.1,0.2,0.2,0.3,0.3
		c0.4,0.4,0.8,0.8,1.1,1.2c0.7,0.7,1.2,1.3,1.6,1.9c0.1,0.1,0.2,0.3,0.3,0.4c0.3,0.5,0.5,1,0.5,1.5c0,0.6,0,1.2-0.2,1.9
		c0,0,0,0,0,0.1c-0.8,2-2.2,3.7-4.1,4.8c-0.6,0.3-1.2,0.7-1.9,0.9c-2.5,1-6.2,1.6-11,1.8c-0.9,0-1.9,0-2.8,0h-68.4
		c-4.6,0-8.2-0.7-10.6-2c-0.3-0.2-0.6-0.3-0.8-0.5c-0.6-0.4-1.1-0.9-1.5-1.4c-1-1.3-1.4-2.8-1.1-4.6c0-0.3,0.1-0.5,0.2-0.8
		c0.4-1.1,1-2.1,1.8-3c0.6-0.7,1.4-1.3,2.2-1.9c0.7-0.5,1.5-1,2.3-1.4c1.6-0.9,3.2-1.9,4.6-3c1-0.8,2-1.7,2.9-2.7
		c0.7-0.8,1.4-1.8,2-2.7c1.2-2,2.2-4.6,3.1-7.8l26.1-86.7c0.2-0.5,0.3-1.1,0.5-1.6c0.3-1.1,0.4-2.1,0.4-2.9c0-0.7-0.1-1.4-0.2-2.1
		c-0.1-0.8-0.4-1.5-0.7-2.2c-0.2-0.3-0.4-0.7-0.6-1c-0.7-0.9-1.7-1.9-3-2.9c-0.5-0.4-1-0.8-1.5-1.1c-0.6-0.4-1.1-0.9-1.6-1.4
		c-1-0.9-1.8-1.7-2.4-2.5c-0.1-0.1-0.2-0.2-0.2-0.3c-0.8-1.1-0.9-2.7-0.4-4.5c0-0.1,0-0.2,0.1-0.3c1.2-4.4,7.1-8.4,17.7-11.8
		c0.4-0.1,0.8-0.2,1.2-0.4c11.4-3.5,23.3-5.2,35.7-5.2c3,0,6,0.2,9.1,0.5c7.1,0.9,12.6,2.9,16.4,6.1c4.8,3.9,7.7,9.6,8,15.7
		c0.1,0.8,0.1,1.5,0.1,2.3C306.9,95.5,306.2,99.9,304.8,104.1z M303.6,1.7c-3.2-1.1-6.7-1.7-10.1-1.7c-0.5,0-1,0-1.5,0
		c-5.4,0.2-10.6,1.8-15,4.8c-4.8,3.2-8.5,7.2-11.1,12.1c-0.5,1-1,2-1.4,3c-1.6,3.7-2.5,7.8-2.5,11.9c0,0.1,0,0.2,0,0.4
		c0.1,7,2.9,13.7,7.9,18.7c2.5,2.6,5.5,4.6,8.9,5.9c3.2,1.2,6.7,1.8,10.2,1.8c6,0,11.4-1.6,16.4-4.6c4.9-3.1,8.7-7.2,11.4-12.2
		c0.4-0.8,0.8-1.6,1.2-2.4c1.9-4.1,2.9-8.5,2.9-12.9c0-0.2,0-0.3,0-0.5c0-6.9-2.8-13.5-7.8-18.2C310.3,5,307.1,3,303.6,1.7z"/>
	<path id="_x32_" vector-effect="non-scaling-stroke" class="st0" d="M410.4,118.8l-23.1,75c-0.1,0.3-0.2,0.7-0.3,1.1
		c-0.2,0.8-0.3,1.7-0.3,2.8c0,0.2,0,0.4,0,0.7c0,1,0.1,2.1,0.4,3.1c0.4,1.3,1,2.4,1.9,3.4c1.5,1.7,3.5,3.4,6.1,4.9
		c1.8,1.2,3.2,2.3,4.1,3.2c0.2,0.2,0.5,0.5,0.7,0.7c0.8,1,1.1,2.3,0.9,3.9c-0.3,2.1-1.5,4-3.3,5.1c-0.4,0.2-0.7,0.4-1.1,0.6
		c-2,1-5.1,1.5-9.4,1.7c-1.1,0-2.2,0.1-3.4,0.1h-76.8c-5.2,0-8.9-0.9-11.2-2.6c-2.3-1.7-3.1-3.9-2.5-6.8c0.4-1.1,1-2.1,1.8-3
		c0.6-0.7,1.4-1.3,2.2-1.9c0.7-0.5,1.5-1,2.3-1.4c1.6-0.9,3.2-1.9,4.6-3c1-0.8,2-1.7,2.9-2.7c0.7-0.8,1.4-1.8,2-2.7
		c1.2-2,2.2-4.6,3.1-7.8l26.7-86.7c0.1-0.4,0.3-0.8,0.3-1.2c0.2-0.8,0.3-1.7,0.3-2.8c0-0.1,0-0.2,0-0.2c0-0.6,0-1.3-0.1-1.9
		c-0.1-0.7-0.3-1.3-0.5-1.8s-0.4-0.9-0.7-1.4c-0.8-1.1-2.1-2.4-3.8-4c-0.2-0.2-0.4-0.3-0.6-0.5c-0.6-0.4-1.1-0.9-1.6-1.4
		c-1-0.9-1.8-1.7-2.4-2.5c-0.1-0.1-0.2-0.2-0.2-0.3c-0.8-1.1-0.9-2.7-0.4-4.5c0-0.1,0-0.2,0.1-0.3c1.2-4.4,7.1-8.4,17.7-11.8
		c0.4-0.1,0.8-0.2,1.2-0.4c11.4-3.5,23.3-5.2,35.7-5.2c3,0,6,0.3,9,0.8c3.9,0.8,7.4,2.1,10.4,4c0.3,0.2,0.7,0.4,1,0.7
		c5.1,3.5,8.8,8.7,10.3,14.8c0.1,0.3,0.2,0.7,0.2,1c3.1-4.7,6.9-8.8,11.2-12.3c7.6-6,16.9-9.1,26.6-9c11.2,0,20.2,3.4,26.9,10.2
		c6.6,6.6,10.2,15.6,10,25c0,0.1,0,0.2,0,0.2c0,2-0.1,4.1-0.4,6.1c-0.2,1.5-0.5,2.9-0.8,4.4c-2,8.2-5.8,14.5-11.4,18.9
		c-4.9,3.9-10.9,6.1-17.2,6.5c-1,0.1-1.9,0.1-2.9,0.1c-7.6,0-13.4-1.8-17.2-5.4c-3.7-3.4-6.9-7.8-9.8-13.3c-0.2-0.4-0.4-0.7-0.6-1.1
		c-0.4-0.9-0.9-1.9-1.4-2.8c-0.9-1.8-1.9-3.2-2.7-4.3c-0.1-0.1-0.2-0.3-0.4-0.4c-0.5-0.5-1-1-1.6-1.4c-0.9-0.6-2.1-1-3.2-1
		c-1.8,0-3.5,0.7-4.7,1.9c-0.2,0.2-0.3,0.3-0.5,0.5c-0.5,0.6-1,1.2-1.3,1.8C412.2,113.8,411.3,116,410.4,118.8z"/>
	<path id="_x33_" vector-effect="non-scaling-stroke" class="st0" d="M555.9,198.9h45c15.4,0,27.4,2.7,36,8s12.9,12.9,12.9,22.6
		c0,2.8-0.4,5.6-1,8.3c-0.2,1-0.5,1.9-0.8,2.8c-1.3,4.2-3.4,8.1-6.1,11.5c-2.7,3.5-6.1,6.9-10.3,10.2c-3.6,2.8-7.5,5.2-11.5,7.3
		c-4.1,2.1-8.6,4-13.5,5.7c-3.6,1.2-7.2,2.4-10.8,3.3c-12,3.3-25.9,5.3-41.9,6c-4.7,0.2-9.5,0.3-14.2,0.3c-6.9,0-13.9-0.2-20.8-0.7
		c-6.8-0.5-13.1-1.3-19-2.3c-3.4-0.6-6.7-1.3-10.1-2.1c-8.8-2.2-16.1-4.9-22-8.1c-3-1.6-5.8-3.6-8.4-5.8c-2.1-1.8-4-3.9-5.6-6.2
		c-2.9-3.9-4.4-8.6-4.4-13.5c0-0.5,0-1,0.1-1.5c0.1-1,0.3-2.2,0.6-3.6c0.1-0.7,0.3-1.4,0.5-2c1.3-4.1,3.7-7.7,6.9-10.5
		c1.6-1.4,3.4-2.7,5.3-3.8c5.3-3.1,13.3-5.3,24.2-6.7c2.3-0.3,4.5-0.5,6.8-0.7c-2.3-2.1-4.1-4.7-5.4-7.6c-1.2-2.8-1.8-5.9-1.8-8.9
		c0-2.2,0.3-4.5,0.9-6.9c2.5-8.3,9-14.8,19.4-19.7c2.9-1.3,5.8-2.5,8.8-3.4c-15-8.2-22.5-20.2-22.5-36l0,0c0-3.1,0.3-6.3,0.9-9.4
		c0.3-1.5,0.6-3,0.9-4.4c2-8.6,6-16.6,11.6-23.5c1.4-1.7,2.8-3.3,4.3-4.9c5.6-5.8,12.1-10.6,19.1-14.5c4-2.2,8.1-4.1,12.4-5.8
		c10.3-4,21.1-6.4,32-7.1c3.3-0.2,6.6-0.4,10-0.4c15.4,0,28.6,1.3,39.7,3.9c5.6,1.3,11.1,3.1,16.4,5.4c-3-4.6-5.3-9.6-7.1-14.8
		c-0.7-2.2-1.3-4.4-1.7-6.7c-0.5-2.4-0.7-4.7-0.8-6.9c0-0.3,0-0.6,0-0.9c0-7.6,2.5-14.1,7.4-19.5s12.3-8.1,22.3-8.1
		c6.4,0,12.6,1.4,18.8,4c3.7,1.6,7.1,3.7,10.1,6.2c1.8,1.5,3.4,3.1,4.9,4.9c1.7,2,3,4.1,4,6.5c1.2,2.7,1.8,5.7,1.8,8.7
		c0.1,2.9-0.5,5.7-1.7,8.3c-2.6,5.1-7.9,8.1-16.1,9.1c-2.1,0.2-4.1,0.3-6.2,0.3c-1.3,0-2.5,0-3.8-0.1c-2.5-0.1-4.5-0.4-6.2-0.8
		c-0.2-0.1-0.5-0.1-0.7-0.2c-1.9-0.5-4-1.3-6.3-2.3c-0.8-0.4-1.7-0.7-2.5-1.1c-0.6,1.3-0.9,3.2-0.9,5.6c0,0.1,0,0.3,0,0.4
		c0,3.2,0.5,7,1.6,11.4c0.8,3.1,1.7,6.2,2.8,9.2c0.4,1,0.8,2.1,1.2,3.1c3.1,4.7,5.1,10,5.9,15.6c0.3,2.2,0.5,4.4,0.4,6.6
		c0,1.5-0.1,3.1-0.2,4.6c-0.2,2.8-0.7,5.8-1.3,9.2c-2,8.6-6,16.7-11.5,23.6c-1.3,1.7-2.8,3.4-4.3,4.9c-5.7,6-12.4,11.1-19.7,15
		c-3.7,2-7.6,3.8-11.5,5.3c-9.8,3.7-20.1,6-30.5,6.9c-3.8,0.3-7.6,0.5-11.3,0.5c-7.3,0-14.6-0.3-21.9-1c-3.6-0.4-7.2-0.8-10.8-1.4
		c-3,2.6-4.5,5.8-4.5,9.6c0,2.6,1.2,4.8,3.6,6.5c2.1,1.5,5.3,2.3,9.8,2.5C554.5,198.9,555.2,198.9,555.9,198.9z M595.5,123.9
		c3.2-10.2,4.8-18,4.8-23.4c0-5.9-2.2-9.3-6.6-10c-0.7-0.1-1.4-0.2-2.1-0.2c-3.6,0-7,1.3-9.7,3.7c-1.3,1.1-2.4,2.3-3.4,3.6
		c-1.2,1.6-2.2,3.2-3.1,5c-2,3.7-3.9,8.4-5.9,14.2c-0.8,2.3-1.5,4.7-2.3,7.1c-3.2,10.4-4.8,18.3-4.8,23.7c0,1.2,0.1,2.5,0.4,3.7
		c0.8,3.5,2.8,5.5,6.1,6c0.6,0.1,1.3,0.2,2,0.2c3.4,0,6.7-1.2,9.3-3.4c1.4-1.1,2.7-2.5,3.9-4.1c3.1-4.1,6.2-10.6,9.3-19.7
		C594.2,128.2,594.9,126.1,595.5,123.9z M564.6,229.2h-28.8c-5.6,0-10.7-0.3-15.3-0.9c-1.4,1.7-2.3,3.7-2.9,5.8
		c-0.4,1.5-0.6,3.1-0.7,4.9c0,0.4,0,0.8,0,1.3c0,1.5,0.3,3,0.8,4.5c0.9,2.7,2.8,5,5.4,6.3c3.5,2,8.7,3.1,15.7,3.3c0.8,0,1.6,0,2.4,0
		c3.2,0,6.5-0.2,9.7-0.5c5.7-0.7,10.7-2,14.8-4c1.6-0.7,3.1-1.7,4.5-2.8c3.2-2.4,5-6.2,5-10.1c0-0.9-0.1-1.8-0.4-2.7
		c-0.4-1.2-1.2-2.3-2.3-3c-1.4-1.1-3.2-1.7-5.5-2C566.1,229.2,565.4,229.2,564.6,229.2z"/>
	<path id="_x34_" vector-effect="non-scaling-stroke" class="st0" d="M785.4,66.3c27.2,0,47.3,5.5,60.2,16.5
		c11.7,9.7,18.7,23.9,19.2,39c0.1,1.4,0.1,2.8,0.1,4.2c0,3.1-0.2,6.2-0.6,9.2c-0.4,3-0.9,6.2-1.5,9.5c-0.1,0.5-0.2,0.9-0.3,1.4
		c-3.8,16.4-10.9,30.7-21.3,43c-10.4,12.3-23.1,21.8-38.2,28.5c-15.1,6.7-31.5,10-49,10.1c-27.4,0-47.8-5.4-61.1-16.2
		c-0.2-0.1-0.3-0.3-0.5-0.4c-11.9-9.7-19-23.9-19.8-39.2c-0.1-1.7-0.2-3.4-0.2-5.1c0-6.2,0.8-13.1,2.4-20.7
		c3.8-15.6,11-29.5,21.8-41.6c10.7-12.1,23.8-21.5,39.3-28.2C751.3,69.7,767.8,66.3,785.4,66.3z M773.7,100.6
		c-0.9,1.2-1.7,2.4-2.5,3.7c-4.7,7.5-10.2,21.7-16.6,42.4c-1.4,4.5-2.7,9-4,13.6c-3.5,12.7-5.3,22.3-5.6,28.7c0,0.5,0,1,0,1.5
		c0,1,0,1.9,0.1,2.9c0.3,2.8,0.9,4.8,2,6c1.4,1.5,3.3,2.2,5.7,2.2c3.5,0.3,7.1-2.1,10.8-7.3c0.8-1.1,1.6-2.3,2.3-3.5
		c4.3-7.3,9.8-21.4,16.3-42.2c0.2-0.7,0.5-1.5,0.7-2.2c4.6-14.4,7.5-25.9,8.7-34.4c0.4-2.6,0.6-5.2,0.6-7.9c0-3.3-0.4-5.8-1.2-7.5
		c-0.2-0.4-0.5-0.8-0.7-1.2c-1-1.2-2.5-2.1-4.1-2.3c-0.5-0.1-1-0.1-1.5-0.1C781.1,93,777.5,95.5,773.7,100.6z"/>
	<path id="_x35_" vector-effect="non-scaling-stroke" class="st0" d="M1007.9,68.1c-2-0.5-3.9-0.9-5.9-1.3
		c-10.8-2.1-23.2-3.2-37.2-3.2c-14.7,0-27.4,1.6-38.2,4.9c-7.2,2.1-14,5.4-20.2,9.6c-7.2,5.1-12.5,11.1-15.9,18
		c-3.2,6.6-4.8,13.8-4.7,21.2c0,7.6,2,14.2,6.2,19.8s9,10.2,14.8,13.9c3.6,2.3,7.9,4.7,12.8,7.2c3.1,1.6,6.3,3.1,9.5,4.6
		c6.9,3.3,12.5,6.3,16.7,8.9c1.5,0.9,2.9,1.9,4.3,2.9c1.1,0.8,2.1,1.7,3,2.7c2.4,2.5,3.8,5.7,3.9,9.2c0,5-1.7,8.9-5.1,11.7
		c-2,1.7-4.4,2.9-7,3.5c-1.9,0.5-3.9,0.7-5.9,0.7c-4.4,0-9-0.6-13.8-1.8c0.1-0.7,0.3-1.4,0.4-2.1c0.3-2,0.5-4,0.5-6
		c0-9.6-3.5-17.5-10.7-23.7c-3.2-2.9-7-5.1-11-6.7c-4.7-1.8-9.7-2.7-14.7-2.6c-0.3,0-0.7,0-1,0c-3.1,0.1-6,0.4-8.7,1.1
		c-4.1,1-7.9,2.8-11.1,5.5c-0.8,0.7-1.6,1.5-2.3,2.3c-3.6,4.3-5.5,10-5.5,17.2c-0.1,5.3,1.5,10.5,4.5,14.9
		c3.9,5.8,10.2,10.7,19.1,14.8c15.7,7.2,37,10.8,63.8,10.8c4.9,0,9.9-0.2,14.8-0.6c17.1-1.3,31.3-5,42.8-11.1c3.9-2,7.6-4.5,11-7.2
		c7.8-6.2,13.4-14.8,15.7-24.6c0.6-3.4,1-5.9,1.1-7.6c0-0.5,0.1-0.9,0.1-1.4c0-0.2,0-0.5,0-0.7c0-6.9-2.4-13.7-6.7-19.1
		c-4.5-5.6-10-10.2-16.5-13.9c-1.7-1-3.5-2-5.3-2.9c-2.7-1.4-5.7-2.9-8.9-4.5c-3.5-1.7-7-3.3-10.5-4.8c-2.5-1.1-4.9-2.3-7.3-3.5
		c-7.9-3.9-13.8-7.2-17.9-10c-5.2-3.6-7.8-8-7.8-13.2c0-0.2,0-0.5,0-0.7c0-0.6,0-1.1,0.1-1.7c0.3-3.1,2-6,4.6-7.8
		c2-1.5,4.4-2.5,6.8-3c1.8-0.4,3.7-0.6,5.6-0.6c2.8,0,6,0.5,9.6,1.5c-0.8,2.4-1.2,4.9-1.2,7.5c-0.1,4.7,1.5,9.4,4.4,13.1
		c1.7,2.2,3.7,4.1,6,5.8c3.9,2.8,8.4,4.9,13.1,6.1c4,1,8.1,1.5,12.2,1.4c1.5,0,3.1-0.1,4.6-0.2c3.2-0.3,6.2-0.8,8.8-1.6
		c3.5-1,6.7-2.6,9.5-4.8l0.1-0.1c5.4-4.4,8.1-10.1,8.1-17c0-4.6-1.6-9.1-4.4-12.8c-1.6-2.1-3.4-3.9-5.3-5.5c-2-1.6-4.1-3.1-6.4-4.4
		c-3-1.7-6.3-3.3-10.1-4.7C1015.6,70.2,1011.8,69.1,1007.9,68.1z"/>
</g>
</svg>
